<?xml version="1.0" encoding="UTF-8"?>
<svg xmlns="http://www.w3.org/2000/svg" version="1.1" width="240" height="240" viewBox="0 0 240 240"><rect x="0" y="0" width="240" height="240" fill="#ffffff"/><g transform="scale(8.276)"><g transform="translate(0,0)"><path fill-rule="evenodd" d="M10 0L10 2L11 2L11 0ZM12 0L12 1L13 1L13 0ZM14 0L14 1L15 1L15 2L16 2L16 3L15 3L15 4L14 4L14 3L13 3L13 2L12 2L12 4L14 4L14 5L15 5L15 6L14 6L14 7L15 7L15 6L16 6L16 7L17 7L17 6L16 6L16 5L15 5L15 4L17 4L17 5L18 5L18 8L16 8L16 9L18 9L18 10L17 10L17 11L18 11L18 12L17 12L17 14L19 14L19 12L20 12L20 14L22 14L22 15L21 15L21 16L20 16L20 15L18 15L18 16L17 16L17 15L16 15L16 14L15 14L15 13L16 13L16 12L15 12L15 13L14 13L14 12L13 12L13 11L12 11L12 13L14 13L14 14L15 14L15 17L14 17L14 16L13 16L13 17L12 17L12 15L13 15L13 14L11 14L11 15L10 15L10 14L9 14L9 13L11 13L11 12L8 12L8 15L7 15L7 14L6 14L6 13L7 13L7 12L5 12L5 11L7 11L7 10L8 10L8 11L9 11L9 10L8 10L8 9L10 9L10 11L11 11L11 9L12 9L12 10L13 10L13 9L14 9L14 10L15 10L15 11L16 11L16 10L15 10L15 9L14 9L14 8L13 8L13 9L12 9L12 7L13 7L13 5L11 5L11 6L10 6L10 4L11 4L11 3L8 3L8 4L9 4L9 5L8 5L8 7L9 7L9 8L6 8L6 9L5 9L5 8L0 8L0 11L1 11L1 10L3 10L3 11L2 11L2 13L4 13L4 14L6 14L6 15L4 15L4 16L6 16L6 17L9 17L9 15L10 15L10 18L8 18L8 19L7 19L7 18L5 18L5 17L4 17L4 18L3 18L3 20L2 20L2 21L3 21L3 20L4 20L4 18L5 18L5 20L6 20L6 21L7 21L7 20L8 20L8 23L9 23L9 24L8 24L8 29L11 29L11 28L9 28L9 27L11 27L11 26L9 26L9 25L10 25L10 24L11 24L11 25L12 25L12 26L13 26L13 27L12 27L12 29L13 29L13 28L14 28L14 29L15 29L15 28L14 28L14 27L16 27L16 28L17 28L17 29L18 29L18 28L17 28L17 26L19 26L19 29L20 29L20 25L21 25L21 27L22 27L22 28L23 28L23 29L25 29L25 28L26 28L26 29L27 29L27 28L28 28L28 26L29 26L29 23L27 23L27 24L26 24L26 22L27 22L27 21L28 21L28 22L29 22L29 19L28 19L28 18L29 18L29 17L28 17L28 16L29 16L29 15L27 15L27 14L29 14L29 12L26 12L26 11L27 11L27 10L29 10L29 9L28 9L28 8L27 8L27 9L26 9L26 8L25 8L25 9L24 9L24 8L23 8L23 10L22 10L22 8L20 8L20 7L21 7L21 6L20 6L20 7L19 7L19 4L17 4L17 2L16 2L16 1L15 1L15 0ZM20 0L20 2L21 2L21 0ZM8 1L8 2L9 2L9 1ZM18 2L18 3L19 3L19 2ZM20 3L20 5L21 5L21 3ZM9 6L9 7L10 7L10 6ZM11 6L11 7L12 7L12 6ZM10 8L10 9L11 9L11 8ZM3 9L3 10L4 10L4 11L5 11L5 9ZM6 9L6 10L7 10L7 9ZM19 9L19 11L21 11L21 13L22 13L22 14L23 14L23 16L21 16L21 17L20 17L20 16L19 16L19 17L20 17L20 18L19 18L19 19L20 19L20 18L21 18L21 19L23 19L23 20L24 20L24 19L25 19L25 18L24 18L24 17L26 17L26 16L27 16L27 15L26 15L26 14L27 14L27 13L26 13L26 14L24 14L24 13L25 13L25 12L24 12L24 11L26 11L26 10L23 10L23 11L21 11L21 10L20 10L20 9ZM0 12L0 21L1 21L1 15L2 15L2 16L3 16L3 15L2 15L2 14L1 14L1 12ZM4 12L4 13L5 13L5 12ZM6 15L6 16L7 16L7 15ZM25 15L25 16L26 16L26 15ZM23 16L23 17L24 17L24 16ZM11 17L11 20L10 20L10 19L8 19L8 20L10 20L10 21L11 21L11 22L13 22L13 23L12 23L12 25L14 25L14 26L16 26L16 25L15 25L15 24L14 24L14 22L13 22L13 21L12 21L12 19L13 19L13 20L15 20L15 22L16 22L16 21L17 21L17 24L18 24L18 25L20 25L20 24L19 24L19 23L20 23L20 22L19 22L19 23L18 23L18 21L20 21L20 20L18 20L18 19L17 19L17 18L18 18L18 17L17 17L17 18L16 18L16 17L15 17L15 18L14 18L14 17L13 17L13 18L12 18L12 17ZM15 18L15 19L16 19L16 20L17 20L17 21L18 21L18 20L17 20L17 19L16 19L16 18ZM6 19L6 20L7 20L7 19ZM26 19L26 20L25 20L25 22L26 22L26 20L28 20L28 19ZM21 21L21 24L24 24L24 21ZM9 22L9 23L10 23L10 22ZM22 22L22 23L23 23L23 22ZM25 24L25 25L22 25L22 26L23 26L23 27L24 27L24 26L27 26L27 25L26 25L26 24ZM26 27L26 28L27 28L27 27ZM0 0L0 7L7 7L7 0ZM1 1L1 6L6 6L6 1ZM2 2L2 5L5 5L5 2ZM22 0L22 7L29 7L29 0ZM23 1L23 6L28 6L28 1ZM24 2L24 5L27 5L27 2ZM0 22L0 29L7 29L7 22ZM1 23L1 28L6 28L6 23ZM2 24L2 27L5 27L5 24Z" fill="#000000"/></g></g></svg>
