<?xml version="1.0" encoding="UTF-8"?>
<svg xmlns="http://www.w3.org/2000/svg" version="1.1" width="240" height="240" viewBox="0 0 240 240"><rect x="0" y="0" width="240" height="240" fill="#ffffff"/><g transform="scale(8.276)"><g transform="translate(0,0)"><path fill-rule="evenodd" d="M9 0L9 1L8 1L8 3L9 3L9 4L8 4L8 8L6 8L6 9L5 9L5 10L4 10L4 8L3 8L3 9L2 9L2 8L0 8L0 9L2 9L2 12L1 12L1 10L0 10L0 12L1 12L1 14L2 14L2 16L0 16L0 17L2 17L2 19L3 19L3 18L4 18L4 20L2 20L2 21L5 21L5 20L6 20L6 21L8 21L8 23L11 23L11 27L10 27L10 26L9 26L9 25L8 25L8 26L9 26L9 27L8 27L8 29L9 29L9 28L10 28L10 29L11 29L11 28L12 28L12 29L14 29L14 28L12 28L12 24L14 24L14 25L13 25L13 27L15 27L15 26L14 26L14 25L15 25L15 24L17 24L17 25L18 25L18 24L19 24L19 23L20 23L20 25L19 25L19 26L20 26L20 27L21 27L21 26L23 26L23 27L22 27L22 28L20 28L20 29L22 29L22 28L23 28L23 29L26 29L26 28L23 28L23 27L27 27L27 29L28 29L28 27L29 27L29 26L28 26L28 25L27 25L27 26L25 26L25 22L26 22L26 24L29 24L29 23L28 23L28 22L29 22L29 21L28 21L28 22L27 22L27 20L26 20L26 18L25 18L25 20L24 20L24 19L23 19L23 18L21 18L21 17L22 17L22 16L23 16L23 17L24 17L24 16L25 16L25 17L26 17L26 16L25 16L25 15L24 15L24 13L23 13L23 12L20 12L20 11L21 11L21 10L22 10L22 11L23 11L23 10L22 10L22 9L25 9L25 8L22 8L22 9L20 9L20 8L21 8L21 5L20 5L20 4L21 4L21 2L20 2L20 3L19 3L19 0L18 0L18 1L17 1L17 0L15 0L15 2L16 2L16 3L15 3L15 5L14 5L14 4L13 4L13 6L12 6L12 5L11 5L11 6L10 6L10 5L9 5L9 4L12 4L12 3L13 3L13 1L14 1L14 0L12 0L12 1L11 1L11 2L9 2L9 1L10 1L10 0ZM16 1L16 2L17 2L17 1ZM16 4L16 6L15 6L15 7L14 7L14 6L13 6L13 8L12 8L12 6L11 6L11 7L10 7L10 6L9 6L9 7L10 7L10 8L8 8L8 9L6 9L6 10L8 10L8 12L9 12L9 13L6 13L6 14L9 14L9 15L11 15L11 16L8 16L8 15L5 15L5 13L4 13L4 12L2 12L2 13L3 13L3 14L4 14L4 15L3 15L3 17L4 17L4 18L5 18L5 19L6 19L6 20L7 20L7 19L8 19L8 20L10 20L10 22L11 22L11 20L10 20L10 19L12 19L12 20L17 20L17 21L18 21L18 22L17 22L17 24L18 24L18 22L20 22L20 19L21 19L21 18L20 18L20 17L21 17L21 14L20 14L20 12L19 12L19 11L17 11L17 9L18 9L18 10L19 10L19 9L18 9L18 8L16 8L16 6L17 6L17 7L18 7L18 6L19 6L19 8L20 8L20 6L19 6L19 4ZM17 5L17 6L18 6L18 5ZM10 8L10 10L9 10L9 9L8 9L8 10L9 10L9 11L11 11L11 10L12 10L12 9L11 9L11 8ZM13 8L13 12L12 12L12 13L9 13L9 14L12 14L12 16L11 16L11 17L10 17L10 18L11 18L11 17L12 17L12 16L14 16L14 17L13 17L13 18L14 18L14 19L15 19L15 18L14 18L14 17L15 17L15 16L16 16L16 19L17 19L17 20L18 20L18 19L19 19L19 18L17 18L17 17L20 17L20 16L18 16L18 14L17 14L17 13L19 13L19 12L16 12L16 15L15 15L15 16L14 16L14 15L13 15L13 13L14 13L14 14L15 14L15 9L16 9L16 8L15 8L15 9L14 9L14 8ZM26 8L26 10L25 10L25 11L26 11L26 12L25 12L25 14L26 14L26 15L27 15L27 16L29 16L29 14L28 14L28 13L27 13L27 14L26 14L26 12L27 12L27 11L28 11L28 10L29 10L29 9L28 9L28 8ZM26 10L26 11L27 11L27 10ZM5 11L5 12L7 12L7 11ZM22 14L22 15L23 15L23 14ZM4 16L4 17L8 17L8 18L9 18L9 17L8 17L8 16ZM27 17L27 18L28 18L28 19L29 19L29 17ZM0 18L0 19L1 19L1 18ZM6 18L6 19L7 19L7 18ZM22 19L22 20L23 20L23 19ZM0 20L0 21L1 21L1 20ZM25 20L25 21L26 21L26 20ZM13 21L13 22L14 22L14 24L15 24L15 23L16 23L16 21L15 21L15 22L14 22L14 21ZM21 21L21 24L24 24L24 21ZM22 22L22 23L23 23L23 22ZM20 25L20 26L21 26L21 25ZM17 26L17 27L16 27L16 28L15 28L15 29L16 29L16 28L17 28L17 29L18 29L18 28L19 28L19 27L18 27L18 26ZM27 26L27 27L28 27L28 26ZM0 0L0 7L7 7L7 0ZM1 1L1 6L6 6L6 1ZM2 2L2 5L5 5L5 2ZM22 0L22 7L29 7L29 0ZM23 1L23 6L28 6L28 1ZM24 2L24 5L27 5L27 2ZM0 22L0 29L7 29L7 22ZM1 23L1 28L6 28L6 23ZM2 24L2 27L5 27L5 24Z" fill="#000000"/></g></g></svg>
