<?xml version="1.0" encoding="UTF-8"?>
<svg xmlns="http://www.w3.org/2000/svg" version="1.1" width="240" height="240" viewBox="0 0 240 240"><rect x="0" y="0" width="240" height="240" fill="#ffffff"/><g transform="scale(8.276)"><g transform="translate(0,0)"><path fill-rule="evenodd" d="M9 0L9 1L8 1L8 2L9 2L9 3L8 3L8 4L10 4L10 7L11 7L11 4L12 4L12 5L15 5L15 6L14 6L14 7L15 7L15 6L16 6L16 7L17 7L17 6L18 6L18 7L19 7L19 4L20 4L20 5L21 5L21 4L20 4L20 3L21 3L21 0L20 0L20 3L19 3L19 4L18 4L18 5L17 5L17 6L16 6L16 5L15 5L15 4L17 4L17 3L15 3L15 4L14 4L14 3L13 3L13 4L12 4L12 2L13 2L13 1L11 1L11 2L10 2L10 0ZM14 0L14 1L15 1L15 2L16 2L16 1L15 1L15 0ZM17 0L17 2L18 2L18 1L19 1L19 0ZM10 3L10 4L11 4L11 3ZM8 5L8 7L9 7L9 5ZM12 6L12 9L14 9L14 10L15 10L15 11L16 11L16 10L15 10L15 9L14 9L14 8L13 8L13 6ZM20 6L20 8L16 8L16 9L18 9L18 10L17 10L17 11L18 11L18 12L17 12L17 14L19 14L19 13L20 13L20 15L18 15L18 16L17 16L17 15L16 15L16 14L15 14L15 13L16 13L16 12L15 12L15 13L14 13L14 12L13 12L13 13L12 13L12 11L13 11L13 10L11 10L11 11L10 11L10 9L11 9L11 8L6 8L6 9L7 9L7 10L4 10L4 11L3 11L3 10L1 10L1 9L5 9L5 8L0 8L0 12L1 12L1 11L2 11L2 12L5 12L5 13L3 13L3 14L2 14L2 13L1 13L1 15L0 15L0 16L1 16L1 17L0 17L0 21L1 21L1 17L2 17L2 18L4 18L4 19L3 19L3 20L4 20L4 21L8 21L8 23L10 23L10 24L8 24L8 29L13 29L13 28L12 28L12 27L13 27L13 26L14 26L14 28L15 28L15 27L16 27L16 28L17 28L17 29L18 29L18 28L17 28L17 26L19 26L19 27L20 27L20 26L21 26L21 27L22 27L22 28L23 28L23 29L25 29L25 28L26 28L26 29L27 29L27 28L28 28L28 26L29 26L29 23L28 23L28 24L26 24L26 22L27 22L27 21L28 21L28 22L29 22L29 19L28 19L28 18L29 18L29 17L28 17L28 16L29 16L29 15L27 15L27 14L29 14L29 12L26 12L26 11L27 11L27 10L29 10L29 9L28 9L28 8L27 8L27 9L26 9L26 8L25 8L25 9L24 9L24 8L23 8L23 10L22 10L22 8L21 8L21 6ZM20 8L20 9L19 9L19 11L20 11L20 12L21 12L21 13L22 13L22 14L21 14L21 15L20 15L20 16L19 16L19 20L18 20L18 19L17 19L17 18L18 18L18 17L17 17L17 18L16 18L16 17L15 17L15 14L14 14L14 13L13 13L13 14L12 14L12 13L11 13L11 12L10 12L10 13L11 13L11 14L9 14L9 12L8 12L8 13L6 13L6 14L9 14L9 15L5 15L5 14L4 14L4 15L3 15L3 16L2 16L2 15L1 15L1 16L2 16L2 17L4 17L4 16L5 16L5 18L7 18L7 17L6 17L6 16L8 16L8 18L9 18L9 17L10 17L10 19L9 19L9 20L8 20L8 21L10 21L10 22L11 22L11 26L9 26L9 27L11 27L11 26L13 26L13 25L12 25L12 23L13 23L13 24L15 24L15 22L16 22L16 21L17 21L17 24L18 24L18 25L20 25L20 24L19 24L19 23L20 23L20 22L19 22L19 23L18 23L18 21L20 21L20 17L21 17L21 19L23 19L23 20L24 20L24 19L25 19L25 18L24 18L24 17L26 17L26 16L27 16L27 15L26 15L26 14L27 14L27 13L26 13L26 14L24 14L24 13L25 13L25 12L24 12L24 11L26 11L26 10L23 10L23 11L21 11L21 10L20 10L20 9L21 9L21 8ZM8 9L8 10L9 10L9 9ZM6 11L6 12L7 12L7 11ZM22 14L22 15L21 15L21 16L23 16L23 17L24 17L24 16L23 16L23 14ZM10 15L10 17L11 17L11 15ZM12 15L12 17L14 17L14 18L15 18L15 19L16 19L16 20L17 20L17 21L18 21L18 20L17 20L17 19L16 19L16 18L15 18L15 17L14 17L14 16L13 16L13 15ZM25 15L25 16L26 16L26 15ZM11 18L11 19L10 19L10 20L11 20L11 21L12 21L12 22L13 22L13 21L14 21L14 22L15 22L15 21L14 21L14 20L13 20L13 21L12 21L12 19L13 19L13 18ZM4 19L4 20L5 20L5 19ZM6 19L6 20L7 20L7 19ZM26 19L26 20L25 20L25 22L26 22L26 20L28 20L28 19ZM21 21L21 24L24 24L24 21ZM22 22L22 23L23 23L23 22ZM25 24L25 25L22 25L22 26L23 26L23 27L24 27L24 26L27 26L27 25L26 25L26 24ZM15 25L15 26L16 26L16 25ZM26 27L26 28L27 28L27 27ZM19 28L19 29L20 29L20 28ZM0 0L0 7L7 7L7 0ZM1 1L1 6L6 6L6 1ZM2 2L2 5L5 5L5 2ZM22 0L22 7L29 7L29 0ZM23 1L23 6L28 6L28 1ZM24 2L24 5L27 5L27 2ZM0 22L0 29L7 29L7 22ZM1 23L1 28L6 28L6 23ZM2 24L2 27L5 27L5 24Z" fill="#000000"/></g></g></svg>
