<?xml version="1.0" encoding="UTF-8"?>
<svg xmlns="http://www.w3.org/2000/svg" version="1.1" width="240" height="240" viewBox="0 0 240 240"><rect x="0" y="0" width="240" height="240" fill="#ffffff"/><g transform="scale(8.276)"><g transform="translate(0,0)"><path fill-rule="evenodd" d="M9 0L9 1L8 1L8 2L9 2L9 3L8 3L8 4L10 4L10 7L11 7L11 4L12 4L12 5L13 5L13 4L14 4L14 5L15 5L15 6L14 6L14 7L15 7L15 6L16 6L16 7L17 7L17 6L16 6L16 5L15 5L15 4L17 4L17 2L16 2L16 1L15 1L15 0L14 0L14 1L15 1L15 4L14 4L14 3L13 3L13 4L12 4L12 2L13 2L13 1L11 1L11 2L10 2L10 0ZM18 0L18 1L19 1L19 0ZM20 0L20 1L21 1L21 0ZM10 3L10 4L11 4L11 3ZM19 3L19 4L20 4L20 5L21 5L21 4L20 4L20 3ZM8 5L8 7L9 7L9 5ZM12 6L12 9L14 9L14 10L15 10L15 11L16 11L16 10L15 10L15 9L14 9L14 8L13 8L13 6ZM18 6L18 8L16 8L16 9L18 9L18 10L17 10L17 11L18 11L18 12L17 12L17 14L20 14L20 15L18 15L18 16L17 16L17 15L16 15L16 14L15 14L15 13L16 13L16 12L15 12L15 13L14 13L14 12L13 12L13 13L12 13L12 11L13 11L13 10L11 10L11 11L10 11L10 9L11 9L11 8L6 8L6 9L7 9L7 10L5 10L5 11L7 11L7 12L5 12L5 13L4 13L4 10L2 10L2 11L1 11L1 12L2 12L2 14L3 14L3 13L4 13L4 14L5 14L5 15L3 15L3 16L2 16L2 15L1 15L1 14L0 14L0 21L1 21L1 17L2 17L2 18L3 18L3 16L6 16L6 17L7 17L7 18L4 18L4 19L5 19L5 20L6 20L6 21L7 21L7 20L8 20L8 23L9 23L9 24L8 24L8 29L12 29L12 27L13 27L13 26L10 26L10 25L11 25L11 24L10 24L10 23L11 23L11 21L12 21L12 22L13 22L13 23L12 23L12 25L13 25L13 24L14 24L14 25L16 25L16 26L15 26L15 27L14 27L14 28L15 28L15 27L16 27L16 28L17 28L17 29L18 29L18 28L17 28L17 26L19 26L19 29L20 29L20 26L19 26L19 25L18 25L18 24L17 24L17 21L18 21L18 23L19 23L19 24L20 24L20 25L21 25L21 27L22 27L22 28L23 28L23 29L25 29L25 28L26 28L26 29L27 29L27 28L28 28L28 26L29 26L29 24L26 24L26 22L27 22L27 21L28 21L28 22L29 22L29 19L28 19L28 18L29 18L29 17L28 17L28 16L29 16L29 15L27 15L27 14L29 14L29 12L26 12L26 11L27 11L27 10L29 10L29 9L28 9L28 8L27 8L27 9L26 9L26 8L25 8L25 9L24 9L24 8L23 8L23 10L22 10L22 8L21 8L21 6L20 6L20 7L19 7L19 6ZM0 8L0 10L1 10L1 9L5 9L5 8ZM19 8L19 9L20 9L20 10L19 10L19 13L20 13L20 14L21 14L21 15L22 15L22 14L23 14L23 16L21 16L21 17L20 17L20 16L19 16L19 17L20 17L20 18L19 18L19 20L18 20L18 19L17 19L17 18L18 18L18 17L17 17L17 18L16 18L16 17L15 17L15 18L16 18L16 19L15 19L15 20L14 20L14 18L13 18L13 17L12 17L12 15L13 15L13 16L15 16L15 14L14 14L14 13L13 13L13 14L12 14L12 13L11 13L11 12L10 12L10 13L9 13L9 11L8 11L8 13L6 13L6 14L8 14L8 13L9 13L9 15L10 15L10 13L11 13L11 16L10 16L10 17L11 17L11 18L10 18L10 21L11 21L11 18L13 18L13 19L12 19L12 21L14 21L14 22L16 22L16 21L17 21L17 20L18 20L18 21L20 21L20 18L21 18L21 19L23 19L23 20L24 20L24 19L25 19L25 18L24 18L24 17L26 17L26 16L27 16L27 15L26 15L26 14L27 14L27 13L26 13L26 14L24 14L24 13L25 13L25 12L24 12L24 11L26 11L26 10L23 10L23 11L20 11L20 10L21 10L21 9L20 9L20 8ZM2 11L2 12L3 12L3 11ZM20 12L20 13L21 13L21 14L22 14L22 13L21 13L21 12ZM6 15L6 16L7 16L7 15ZM25 15L25 16L26 16L26 15ZM23 16L23 17L24 17L24 16ZM8 17L8 18L9 18L9 17ZM2 19L2 20L3 20L3 19ZM6 19L6 20L7 20L7 19ZM8 19L8 20L9 20L9 19ZM16 19L16 20L17 20L17 19ZM26 19L26 20L25 20L25 22L26 22L26 20L28 20L28 19ZM21 21L21 24L24 24L24 21ZM9 22L9 23L10 23L10 22ZM19 22L19 23L20 23L20 22ZM22 22L22 23L23 23L23 22ZM14 23L14 24L15 24L15 23ZM9 24L9 25L10 25L10 24ZM25 24L25 25L22 25L22 26L23 26L23 27L24 27L24 26L27 26L27 25L26 25L26 24ZM9 26L9 27L10 27L10 28L11 28L11 27L10 27L10 26ZM26 27L26 28L27 28L27 27ZM0 0L0 7L7 7L7 0ZM1 1L1 6L6 6L6 1ZM2 2L2 5L5 5L5 2ZM22 0L22 7L29 7L29 0ZM23 1L23 6L28 6L28 1ZM24 2L24 5L27 5L27 2ZM0 22L0 29L7 29L7 22ZM1 23L1 28L6 28L6 23ZM2 24L2 27L5 27L5 24Z" fill="#000000"/></g></g></svg>
