<?xml version="1.0" encoding="UTF-8"?>
<svg xmlns="http://www.w3.org/2000/svg" version="1.1" width="240" height="240" viewBox="0 0 240 240"><rect x="0" y="0" width="240" height="240" fill="#ffffff"/><g transform="scale(8.276)"><g transform="translate(0,0)"><path fill-rule="evenodd" d="M9 0L9 1L11 1L11 2L9 2L9 3L8 3L8 5L9 5L9 6L8 6L8 7L9 7L9 9L10 9L10 10L8 10L8 8L5 8L5 9L3 9L3 11L2 11L2 8L0 8L0 10L1 10L1 11L2 11L2 13L0 13L0 14L1 14L1 15L0 15L0 16L2 16L2 18L1 18L1 17L0 17L0 21L1 21L1 19L2 19L2 20L4 20L4 21L8 21L8 24L9 24L9 25L14 25L14 23L16 23L16 24L15 24L15 28L16 28L16 27L17 27L17 26L19 26L19 25L20 25L20 26L21 26L21 27L19 27L19 29L20 29L20 28L22 28L22 27L23 27L23 29L25 29L25 28L26 28L26 29L27 29L27 27L28 27L28 28L29 28L29 27L28 27L28 26L29 26L29 25L28 25L28 23L27 23L27 25L28 25L28 26L24 26L24 27L23 27L23 26L21 26L21 25L26 25L26 22L25 22L25 20L26 20L26 21L27 21L27 22L28 22L28 21L29 21L29 17L28 17L28 16L27 16L27 14L26 14L26 13L24 13L24 12L26 12L26 11L27 11L27 13L28 13L28 14L29 14L29 13L28 13L28 11L27 11L27 10L26 10L26 8L24 8L24 9L22 9L22 10L20 10L20 11L21 11L21 12L20 12L20 14L21 14L21 12L22 12L22 13L24 13L24 14L26 14L26 15L25 15L25 16L26 16L26 17L24 17L24 16L23 16L23 17L24 17L24 18L22 18L22 17L20 17L20 16L21 16L21 15L18 15L18 16L15 16L15 15L16 15L16 13L17 13L17 14L19 14L19 8L16 8L16 7L17 7L17 6L16 6L16 7L15 7L15 6L14 6L14 7L15 7L15 8L16 8L16 9L15 9L15 12L14 12L14 14L15 14L15 15L14 15L14 16L13 16L13 15L12 15L12 17L13 17L13 18L12 18L12 19L9 19L9 18L11 18L11 16L8 16L8 19L9 19L9 20L6 20L6 19L7 19L7 18L6 18L6 17L7 17L7 16L6 16L6 15L8 15L8 14L10 14L10 15L11 15L11 12L12 12L12 11L13 11L13 10L11 10L11 8L10 8L10 7L11 7L11 4L12 4L12 5L13 5L13 4L14 4L14 5L15 5L15 3L17 3L17 2L18 2L18 3L19 3L19 1L20 1L20 0L19 0L19 1L17 1L17 0L16 0L16 1L17 1L17 2L15 2L15 3L13 3L13 4L12 4L12 2L13 2L13 1L14 1L14 0L13 0L13 1L12 1L12 0ZM20 2L20 9L21 9L21 2ZM9 3L9 5L10 5L10 3ZM9 6L9 7L10 7L10 6ZM12 6L12 9L14 9L14 8L13 8L13 6ZM18 6L18 7L19 7L19 6ZM5 9L5 10L4 10L4 11L5 11L5 15L6 15L6 14L8 14L8 13L6 13L6 12L7 12L7 11L8 11L8 12L10 12L10 11L11 11L11 10L10 10L10 11L8 11L8 10L7 10L7 9ZM17 9L17 10L16 10L16 12L17 12L17 13L18 13L18 11L17 11L17 10L18 10L18 9ZM6 10L6 11L7 11L7 10ZM23 10L23 11L22 11L22 12L24 12L24 11L26 11L26 10ZM3 12L3 13L2 13L2 14L3 14L3 15L2 15L2 16L3 16L3 17L6 17L6 16L4 16L4 14L3 14L3 13L4 13L4 12ZM12 13L12 14L13 14L13 13ZM22 14L22 15L23 15L23 14ZM17 17L17 20L14 20L14 19L15 19L15 18L14 18L14 19L12 19L12 21L11 21L11 20L9 20L9 21L11 21L11 22L10 22L10 24L12 24L12 23L13 23L13 22L12 22L12 21L16 21L16 22L17 22L17 24L16 24L16 25L19 25L19 23L20 23L20 20L18 20L18 17ZM19 17L19 18L20 18L20 17ZM27 17L27 18L24 18L24 19L23 19L23 20L24 20L24 19L26 19L26 20L27 20L27 18L28 18L28 17ZM2 18L2 19L3 19L3 18ZM5 18L5 19L4 19L4 20L5 20L5 19L6 19L6 18ZM21 18L21 20L22 20L22 18ZM17 20L17 21L18 21L18 23L19 23L19 21L18 21L18 20ZM21 21L21 24L24 24L24 21ZM22 22L22 23L23 23L23 22ZM9 26L9 27L8 27L8 29L10 29L10 28L11 28L11 29L12 29L12 27L13 27L13 26L11 26L11 27L10 27L10 26ZM9 27L9 28L10 28L10 27ZM17 28L17 29L18 29L18 28ZM0 0L0 7L7 7L7 0ZM1 1L1 6L6 6L6 1ZM2 2L2 5L5 5L5 2ZM22 0L22 7L29 7L29 0ZM23 1L23 6L28 6L28 1ZM24 2L24 5L27 5L27 2ZM0 22L0 29L7 29L7 22ZM1 23L1 28L6 28L6 23ZM2 24L2 27L5 27L5 24Z" fill="#000000"/></g></g></svg>
