<?xml version="1.0" encoding="UTF-8"?>
<svg xmlns="http://www.w3.org/2000/svg" version="1.1" width="300" height="300" viewBox="0 0 300 300"><rect x="0" y="0" width="300" height="300" fill="#ffffff"/><g transform="scale(12)"><g transform="translate(0,0)"><path fill-rule="evenodd" d="M8 0L8 1L11 1L11 3L10 3L10 2L9 2L9 3L10 3L10 5L9 5L9 6L8 6L8 8L9 8L9 9L10 9L10 10L8 10L8 9L7 9L7 8L6 8L6 9L7 9L7 10L5 10L5 8L3 8L3 9L2 9L2 8L0 8L0 9L2 9L2 10L1 10L1 11L0 11L0 12L1 12L1 13L0 13L0 17L1 17L1 15L2 15L2 16L3 16L3 17L4 17L4 15L5 15L5 17L7 17L7 16L9 16L9 17L8 17L8 18L9 18L9 19L11 19L11 20L10 20L10 21L9 21L9 20L8 20L8 22L9 22L9 23L8 23L8 25L9 25L9 24L10 24L10 25L12 25L12 24L13 24L13 23L14 23L14 25L15 25L15 23L18 23L18 22L19 22L19 24L16 24L16 25L19 25L19 24L21 24L21 25L22 25L22 24L24 24L24 25L25 25L25 21L23 21L23 22L22 22L22 20L21 20L21 19L22 19L22 18L21 18L21 16L20 16L20 14L21 14L21 15L22 15L22 17L23 17L23 18L24 18L24 20L25 20L25 18L24 18L24 16L25 16L25 14L24 14L24 13L25 13L25 10L24 10L24 9L25 9L25 8L24 8L24 9L19 9L19 8L18 8L18 9L19 9L19 10L16 10L16 8L17 8L17 5L16 5L16 8L15 8L15 6L14 6L14 5L13 5L13 4L14 4L14 3L15 3L15 4L17 4L17 3L15 3L15 2L13 2L13 1L12 1L12 0ZM14 0L14 1L15 1L15 0ZM16 1L16 2L17 2L17 1ZM12 2L12 4L13 4L13 2ZM10 5L10 6L9 6L9 7L10 7L10 9L11 9L11 10L10 10L10 11L9 11L9 12L8 12L8 11L6 11L6 12L8 12L8 13L9 13L9 12L11 12L11 16L12 16L12 15L13 15L13 16L14 16L14 17L12 17L12 18L11 18L11 17L9 17L9 18L11 18L11 19L12 19L12 20L13 20L13 21L15 21L15 22L14 22L14 23L15 23L15 22L16 22L16 21L15 21L15 20L13 20L13 19L14 19L14 17L15 17L15 19L16 19L16 16L17 16L17 15L18 15L18 14L20 14L20 13L21 13L21 14L23 14L23 13L24 13L24 12L20 12L20 13L18 13L18 12L19 12L19 11L17 11L17 12L16 12L16 13L17 13L17 14L16 14L16 16L15 16L15 15L13 15L13 14L12 14L12 13L15 13L15 10L14 10L14 8L13 8L13 9L12 9L12 6L13 6L13 7L14 7L14 6L13 6L13 5L12 5L12 6L11 6L11 5ZM10 6L10 7L11 7L11 6ZM2 10L2 12L3 12L3 13L4 13L4 10ZM12 10L12 11L13 11L13 10ZM20 10L20 11L21 11L21 10ZM22 10L22 11L24 11L24 10ZM5 13L5 15L6 15L6 16L7 16L7 15L9 15L9 16L10 16L10 14L7 14L7 13ZM3 14L3 15L4 15L4 14ZM6 14L6 15L7 15L7 14ZM23 15L23 16L24 16L24 15ZM17 17L17 20L20 20L20 17ZM12 18L12 19L13 19L13 18ZM18 18L18 19L19 19L19 18ZM11 21L11 22L10 22L10 23L11 23L11 22L12 22L12 23L13 23L13 22L12 22L12 21ZM19 21L19 22L21 22L21 24L22 24L22 22L21 22L21 21ZM0 0L0 7L7 7L7 0ZM1 1L1 6L6 6L6 1ZM2 2L2 5L5 5L5 2ZM18 0L18 7L25 7L25 0ZM19 1L19 6L24 6L24 1ZM20 2L20 5L23 5L23 2ZM0 18L0 25L7 25L7 18ZM1 19L1 24L6 24L6 19ZM2 20L2 23L5 23L5 20Z" fill="#000000"/></g></g></svg>
